<?xml version="1.0" encoding="utf-8"?>
<!-- Generator: Adobe Illustrator 26.1.0, SVG Export Plug-In . SVG Version: 6.00 Build 0)  -->
<svg version="1.1" id="Vrstva_1" xmlns="http://www.w3.org/2000/svg" xmlns:xlink="http://www.w3.org/1999/xlink" x="0px" y="0px"
	 viewBox="0 0 595.28 841.89" style="enable-background:new 0 0 595.28 841.89;" xml:space="preserve">
<style type="text/css">
	.st0{fill:#FFFFFF;}
	.st1{display:none;}
	.st2{display:inline;}
	.st3{display:inline;fill:#C6C6C6;}
	.st4{display:inline;fill:#706F6F;}
	.st5{fill:#E30613;}
	.st6{fill:#C6C6C6;}
	.st7{fill:#706F6F;stroke:#000000;stroke-miterlimit:10;}
	.st8{fill:#DADADA;}
</style>
<line class="st0" x1="258.38" y1="471.64" x2="256.21" y2="485.55"/>
<g class="st1">
	<path class="st2" d="M310.51,505.68c-4.47-0.28-7.86-0.4-11.23-0.74c-1.72-0.17-3.41-0.75-5.11-1.14
		c-1.38-0.32-2.79-0.54-4.14-0.96c-2.4-0.74-4.85-1.4-7.11-2.45c-3.67-1.72-7.3-3.58-10.77-5.66c-5.02-3.01-9.43-6.87-13.34-11.18
		c-2.91-3.2-5.45-6.74-7.98-10.26c-2.89-4.01-5.07-8.44-6.65-13.11c-1.11-3.3-1.79-6.74-2.62-10.13c-0.32-1.3-0.62-2.63-0.73-3.96
		c-0.31-3.85-0.71-7.71-0.71-11.57c0-2.72,0.56-5.44,0.9-8.16c0.24-1.86,0.39-3.75,0.83-5.57c0.51-2.11,1.2-4.2,1.98-6.23
		c1.09-2.83,2.2-5.67,3.54-8.39c2.97-6.01,6.84-11.4,11.42-16.34c2.97-3.2,6.18-6.08,9.61-8.72c2.99-2.31,6.26-4.19,9.82-5.55
		c3.59-1.38,7.07-3.04,10.67-4.38c1.65-0.61,3.47-0.79,5.23-1.1c2.12-0.38,4.26-0.69,6.39-1.03c1-0.16,2.01-0.35,3.02-0.46
		c1.83-0.2,3.68-0.6,5.49-0.47c3.55,0.25,7.07,0.8,10.6,1.24c2.57,0.33,5.15,0.6,7.68,1.08c1.48,0.28,2.9,0.88,4.32,1.44
		c2.07,0.81,4.08,1.78,6.16,2.55c2.99,1.11,5.81,2.49,8.37,4.4c2.88,2.15,5.94,4.09,8.61,6.47c2.52,2.24,4.68,4.91,6.94,7.44
		c1.47,1.65,2.88,3.36,4.21,5.13c2.17,2.86,3.89,5.99,5.27,9.3c1.1,2.64,2.36,5.23,3.26,7.95c0.94,2.83,1.55,5.78,2.26,8.69
		c0.38,1.54,0.69,3.09,0.97,4.64c0.15,0.84,0.22,1.71,0.28,2.57c0.1,1.44,0.29,2.89,0.23,4.32c-0.09,2.13-0.36,4.25-0.58,6.37
		c-0.1,0.93-0.27,1.86-0.39,2.79c-0.51,3.81-0.84,7.65-1.58,11.41c-0.36,1.83-1.46,3.51-2.25,5.24c-1.12,2.46-2.22,4.93-3.42,7.35
		c-1.01,2.02-1.99,4.07-3.27,5.91c-2,2.87-3.98,5.85-6.45,8.3c-3.84,3.81-7.97,7.34-12.19,10.73c-3.01,2.41-6.51,4.13-10.13,5.53
		c-2.91,1.12-5.77,2.4-8.7,3.46c-1.43,0.52-2.98,0.73-4.49,1.02c-1.96,0.37-3.93,0.72-5.9,1.01
		C315.71,504.95,312.59,505.38,310.51,505.68z M308.14,368.65c-1.68,0.34-3.11,0.68-4.56,0.91c-2.9,0.46-5.81,0.85-8.71,1.27
		c-2.08,0.3-4.14,0.52-6.11,1.46c-2.69,1.28-5.51,2.3-8.27,3.43c-1.93,0.79-3.93,1.46-5.78,2.42c-1.79,0.93-3.5,2.07-5.12,3.28
		c-2.2,1.63-4.43,3.28-6.39,5.18c-2.74,2.66-5.39,5.44-7.82,8.39c-1.75,2.12-3.15,4.53-4.57,6.9c-1.16,1.93-2.23,3.94-3.17,5.99
		c-1.28,2.78-2.53,5.59-3.53,8.48c-0.76,2.21-1.16,4.55-1.62,6.86c-0.54,2.76-1.2,5.52-1.38,8.31c-0.24,3.65-0.09,7.32-0.02,10.99
		c0.01,0.57,0.37,1.41,0.82,1.66c2.51,1.36,5.05,2.71,7.68,3.82c2.65,1.11,5.41,1.95,8.14,2.85c1.15,0.38,2.34,0.65,3.51,0.94
		c1.69,0.41,3.4,0.77,5.09,1.16c1.54,0.36,3.06,0.81,4.62,1.07c2.54,0.42,5.09,0.73,7.64,1.05c3.32,0.42,6.64,1,9.98,1.17
		c3.94,0.2,7.91,0.07,11.86,0.04c1.29-0.01,2.58-0.11,3.85-0.27c3.04-0.37,6.07-0.78,9.1-1.22c4.44-0.65,8.87-1.3,13.29-2.02
		c2.08-0.34,4.15-0.78,6.18-1.31c2.08-0.54,4.11-1.25,6.16-1.9c2.81-0.9,5.62-1.8,8.41-2.76c1.5-0.51,2.95-1.15,4.42-1.74
		c2.13-0.87,4.28-1.69,6.37-2.64c1.76-0.8,3.46-1.72,5.18-2.62c1.76-0.92,3.53-1.82,5.25-2.82c2.64-1.53,5.25-3.1,7.83-4.71
		c0.35-0.22,0.7-0.81,0.67-1.19c-0.1-1.12-0.39-2.23-0.61-3.34c-0.27-1.39-0.68-2.78-0.8-4.19c-0.29-3.38-1.55-6.46-2.74-9.57
		c-0.76-2-1.74-3.92-2.54-5.9c-1.42-3.48-3.16-6.79-5.42-9.79c-1.52-2.01-3.23-3.89-4.83-5.84c-1.32-1.62-2.42-3.47-3.95-4.85
		c-2.41-2.17-5.06-4.1-7.69-6c-3.69-2.67-7.57-5.02-11.86-6.64c-2.96-1.12-5.91-2.23-8.86-3.37c-0.44-0.17-0.82-0.61-1.25-0.65
		c-2.5-0.26-5.02-0.36-7.51-0.67C315.37,369.76,311.66,369.16,308.14,368.65z M241.86,445.73c-0.01,0.12-0.08,0.42-0.04,0.69
		c0.23,1.42,0.46,2.85,0.75,4.25c0.31,1.51,0.6,3.03,1.08,4.49c0.76,2.33,1.58,4.65,2.51,6.92c0.87,2.13,1.79,4.25,2.9,6.26
		c1.37,2.47,2.82,4.92,4.48,7.21c1.96,2.71,4.09,5.32,6.32,7.82c1.58,1.76,3.34,3.4,5.21,4.85c3.13,2.43,6.38,4.71,9.64,6.96
		c1.01,0.7,2.25,1.06,3.39,1.58c2.56,1.19,5.07,2.47,7.67,3.55c2,0.83,4.07,1.56,6.17,2.09c2.05,0.52,4.18,0.75,6.28,1.07
		c2.14,0.33,4.33,1.01,6.44,0.84c4.72-0.38,9.48,0.51,14.17-0.79c2.93-0.81,6.06-0.94,8.98-1.79c2.99-0.87,5.84-2.21,8.72-3.42
		c2.56-1.08,5.17-2.12,7.6-3.46c2.09-1.15,4.03-2.62,5.91-4.1c1.76-1.38,3.37-2.95,5.03-4.45c1.77-1.61,3.54-3.22,5.26-4.87
		c0.43-0.41,0.72-0.99,1.07-1.49c1.41-1.97,2.91-3.88,4.19-5.93c1.47-2.35,2.84-4.78,4.08-7.27c1.18-2.37,2.16-4.84,3.21-7.28
		c0.64-1.49,1.44-2.94,1.8-4.5c0.52-2.31,0.71-4.7,1.04-7.05c0.41-2.9,0.93-5.78,1.2-8.69c0.19-2.03,0.04-4.1,0.04-6.41
		c-0.61,0.56-0.94,0.97-1.36,1.23c-2.55,1.6-5.06,3.27-7.7,4.71c-5.78,3.17-11.53,6.41-17.94,8.27c-2.79,0.81-5.49,1.93-8.24,2.85
		c-2.23,0.75-4.47,1.44-6.72,2.1c-1.09,0.32-2.21,0.55-3.32,0.77c-1.55,0.31-3.12,0.56-4.67,0.87c-1.39,0.28-2.77,0.68-4.17,0.91
		c-1.45,0.24-2.92,0.29-4.37,0.5c-3.25,0.46-6.49,1-9.74,1.45c-1.25,0.17-2.52,0.18-3.77,0.29c-1.59,0.14-3.18,0.42-4.77,0.45
		c-3.5,0.07-7,0.08-10.49,0c-1.84-0.04-3.67-0.3-5.51-0.47c-1.77-0.16-3.54-0.27-5.29-0.52c-2.41-0.35-4.81-0.81-7.21-1.24
		c-1.84-0.33-3.68-0.65-5.5-1.06c-1.46-0.33-2.89-0.81-4.34-1.18c-2.35-0.6-4.73-1.09-7.05-1.79c-1.74-0.52-3.42-1.28-5.1-1.97
		C247.07,447.94,244.47,446.83,241.86,445.73z"/>
	<path class="st3" d="M308.14,368.65c3.52,0.51,7.23,1.11,10.96,1.58c2.49,0.31,5.01,0.41,7.51,0.67c0.43,0.05,0.81,0.49,1.25,0.65
		c2.95,1.14,5.9,2.25,8.86,3.37c4.29,1.62,8.17,3.97,11.86,6.64c2.64,1.91,5.28,3.83,7.69,6c1.53,1.38,2.63,3.23,3.95,4.85
		c1.6,1.96,3.31,3.83,4.83,5.84c2.26,3,4,6.31,5.42,9.79c0.81,1.98,1.78,3.9,2.54,5.9c1.19,3.1,2.44,6.19,2.74,9.57
		c0.12,1.41,0.53,2.79,0.8,4.19c0.22,1.11,0.51,2.22,0.61,3.34c0.03,0.38-0.32,0.98-0.67,1.19c-2.58,1.61-5.19,3.19-7.83,4.71
		c-1.72,0.99-3.49,1.9-5.25,2.82c-1.72,0.9-3.42,1.82-5.18,2.62c-2.09,0.95-4.24,1.77-6.37,2.64c-1.47,0.6-2.92,1.23-4.42,1.74
		c-2.79,0.96-5.6,1.86-8.41,2.76c-2.04,0.66-4.08,1.36-6.16,1.9c-2.04,0.53-4.11,0.97-6.18,1.31c-4.42,0.72-8.86,1.37-13.29,2.02
		c-3.03,0.44-6.06,0.85-9.1,1.22c-1.28,0.16-2.57,0.26-3.85,0.27c-3.96,0.03-7.92,0.17-11.86-0.04c-3.34-0.17-6.66-0.75-9.98-1.17
		c-2.55-0.32-5.1-0.63-7.64-1.05c-1.56-0.26-3.08-0.71-4.62-1.07c-1.7-0.39-3.4-0.76-5.09-1.16c-1.18-0.28-2.37-0.56-3.51-0.94
		c-2.73-0.91-5.49-1.75-8.14-2.85c-2.63-1.1-5.17-2.45-7.68-3.82c-0.45-0.25-0.81-1.08-0.82-1.66c-0.07-3.66-0.22-7.34,0.02-10.99
		c0.18-2.79,0.84-5.55,1.38-8.31c0.45-2.3,0.85-4.65,1.62-6.86c0.99-2.89,2.25-5.7,3.53-8.48c0.94-2.05,2-4.06,3.17-5.99
		c1.42-2.36,2.82-4.78,4.57-6.9c2.43-2.94,5.08-5.73,7.82-8.39c1.96-1.9,4.19-3.54,6.39-5.18c1.63-1.21,3.33-2.35,5.12-3.28
		c1.85-0.96,3.84-1.63,5.78-2.42c2.76-1.13,5.58-2.15,8.27-3.43c1.97-0.94,4.03-1.16,6.11-1.46c2.9-0.42,5.81-0.81,8.71-1.27
		C305.03,369.33,306.46,368.99,308.14,368.65z M301.29,422.83c0.09-0.06,0.17-0.12,0.26-0.18c-0.16-0.31-0.25-0.69-0.49-0.93
		c-0.61-0.61-1.26-1.19-1.94-1.71c-2.21-1.68-4.36-3.44-6.68-4.96c-2.61-1.71-5.32-3.28-8.07-4.75c-1.81-0.97-3.71-1.98-5.69-2.42
		c-2.5-0.57-5.12-0.59-7.7-0.83c-1.56-0.14-3.13-0.16-4.68-0.39c-2.01-0.29-4-0.76-6-1.1c-0.45-0.08-0.95,0.08-1.42,0.13
		c0.49,0.57,0.95,0.96,1.47,1.06c2.04,0.39,4.09,0.74,6.15,1.02c3.87,0.53,7.72,1.01,11.5,2.18c4.07,1.26,8.08,2.62,11.78,4.74
		c2.03,1.16,3.96,2.51,5.87,3.87C297.57,419.93,299.41,421.41,301.29,422.83z M315.84,419.06c0.53,1.32,0.96,2.45,1.45,3.56
		c0.11,0.26,0.41,0.44,0.63,0.65c0.2-0.27,0.46-0.51,0.58-0.81c0.99-2.4,2.01-4.8,3.75-6.77c2.12-2.4,4.34-4.72,6.56-7.03
		c1.18-1.23,2.38-2.47,3.73-3.49c3.15-2.36,6.45-4.51,10.23-5.82c0.97-0.34,1.83-1.02,2.74-1.54c-0.05-0.18-0.1-0.35-0.15-0.53
		c-0.92,0-1.88-0.15-2.76,0.03c-1.61,0.34-3.4,0.22-4.7,1.51c-0.43,0.43-0.77,0.97-1.23,1.36c-2.11,1.83-4.35,3.52-6.35,5.46
		c-2.37,2.3-4.43,4.92-6.82,7.2c-2.17,2.07-3.59,4.57-4.89,7.19c-0.19,0.39-0.55,0.7-0.86,1.07
		C317.2,420.28,317.43,419.07,315.84,419.06z M297.52,432.06c-0.32-1.63-0.65-3.38-1-5.13c-0.15-0.76-0.72-1.08-1.37-0.86
		c-0.44,0.15-0.98,0.63-1.08,1.05c-0.29,1.26-0.44,2.57-0.56,3.86c-0.15,1.7-0.23,3.42,0.76,4.92c0.31,0.46,0.87,0.94,1.38,1.02
		c0.31,0.05,0.96-0.56,1.09-0.98C297.09,434.76,297.24,433.51,297.52,432.06z M320.71,429.51c-0.09,0.03-0.17,0.05-0.26,0.08
		c0.44,1.67,0.82,3.36,1.36,4.99c0.11,0.34,0.91,0.72,1.28,0.62c0.45-0.12,1.09-0.71,1.1-1.1c0.02-2.69-0.11-5.38-0.17-8.07
		c-0.02-0.97-0.53-1.32-1.43-1.26c-0.91,0.06-1.46,0.53-1.57,1.42C320.88,427.3,320.81,428.41,320.71,429.51z M304.76,407.09
		c-0.14-0.03-0.28-0.06-0.42-0.09c-0.11,0.29-0.31,0.59-0.31,0.88c-0.1,5.09-0.18,10.19-0.26,15.28c0,0.21-0.06,0.44,0.02,0.62
		c0.12,0.26,0.34,0.48,0.51,0.71c0.16-0.26,0.35-0.5,0.45-0.77c0.07-0.18,0.01-0.41,0.01-0.62c0-4.94,0-9.89,0-14.83
		C304.76,407.88,304.76,407.48,304.76,407.09z M276.52,386.52c-1.96,0.34-4.64,2.53-4.89,3.99
		C273.28,388.98,275.32,388.29,276.52,386.52z M283.77,391.41c-1.17,0.64-2.1,3.13-1.69,3.98c0.08,0.16,0.29,0.25,0.43,0.38
		c0.17-0.2,0.41-0.37,0.48-0.6c0.26-0.79,0.49-1.6,0.68-2.42C283.77,392.37,283.74,391.98,283.77,391.41z M273.29,392.73
		c0.09,0.06,0.18,0.12,0.26,0.18c1.03-1.03,2.07-2.06,3.08-3.11c0.08-0.09-0.01-0.34-0.02-0.52c-0.25,0.03-0.59-0.03-0.73,0.11
		c-0.83,0.84-1.62,1.72-2.39,2.62C273.34,392.18,273.35,392.48,273.29,392.73z M287.04,393.31c-1.1,0.27-1.65,1.37-1.18,2.14
		c0.09,0.15,0.31,0.27,0.48,0.29c0.11,0.01,0.32-0.16,0.35-0.29C286.82,394.77,286.92,394.07,287.04,393.31z M292.17,394.48
		c0.82-0.46,1.62-0.96,1.21-2.28C292.34,392.66,292.19,393.52,292.17,394.48z"/>
	<path class="st4" d="M241.86,445.73c2.61,1.1,5.22,2.21,7.83,3.28c1.69,0.69,3.36,1.45,5.1,1.97c2.32,0.7,4.7,1.18,7.05,1.79
		c1.45,0.37,2.88,0.85,4.34,1.18c1.82,0.41,3.66,0.73,5.5,1.06c2.4,0.43,4.8,0.89,7.21,1.24c1.75,0.25,3.53,0.36,5.29,0.52
		c1.84,0.17,3.67,0.43,5.51,0.47c3.5,0.08,7,0.07,10.49,0c1.59-0.03,3.18-0.31,4.77-0.45c1.26-0.11,2.53-0.12,3.77-0.29
		c3.25-0.45,6.49-0.99,9.74-1.45c1.45-0.21,2.93-0.26,4.37-0.5c1.4-0.23,2.77-0.63,4.17-0.91c1.55-0.31,3.11-0.56,4.67-0.87
		c1.11-0.22,2.23-0.45,3.32-0.77c2.25-0.66,4.5-1.36,6.72-2.1c2.76-0.92,5.46-2.04,8.24-2.85c6.4-1.86,12.15-5.1,17.94-8.27
		c2.64-1.44,5.15-3.12,7.7-4.71c0.42-0.26,0.74-0.67,1.36-1.23c0,2.31,0.15,4.37-0.04,6.41c-0.27,2.91-0.79,5.79-1.2,8.69
		c-0.33,2.35-0.52,4.74-1.04,7.05c-0.35,1.56-1.16,3.01-1.8,4.5c-1.05,2.44-2.02,4.91-3.21,7.28c-1.24,2.48-2.61,4.91-4.08,7.27
		c-1.28,2.05-2.79,3.96-4.19,5.93c-0.35,0.5-0.64,1.07-1.07,1.49c-1.73,1.65-3.49,3.27-5.26,4.87c-1.66,1.5-3.27,3.07-5.03,4.45
		c-1.89,1.48-3.82,2.95-5.91,4.1c-2.43,1.34-5.03,2.38-7.6,3.46c-2.88,1.21-5.73,2.55-8.72,3.42c-2.92,0.85-6.05,0.98-8.98,1.79
		c-4.69,1.3-9.46,0.41-14.17,0.79c-2.11,0.17-4.29-0.51-6.44-0.84c-2.1-0.32-4.23-0.55-6.28-1.07c-2.1-0.53-4.17-1.26-6.17-2.09
		c-2.6-1.08-5.12-2.36-7.67-3.55c-1.13-0.53-2.37-0.89-3.39-1.58c-3.27-2.24-6.52-4.53-9.64-6.96c-1.87-1.45-3.63-3.09-5.21-4.85
		c-2.23-2.5-4.36-5.11-6.32-7.82c-1.65-2.29-3.11-4.74-4.48-7.21c-1.11-2.01-2.03-4.13-2.9-6.26c-0.93-2.27-1.76-4.59-2.51-6.92
		c-0.47-1.46-0.76-2.98-1.08-4.49c-0.29-1.41-0.52-2.83-0.75-4.25C241.78,446.15,241.85,445.86,241.86,445.73z M340.19,455.21
		c-0.45,0.02-0.92-0.05-1.33,0.08c-0.85,0.27-1.67,0.63-2.49,0.97c-2.69,1.1-5.34,2.28-8.06,3.27c-2.11,0.77-4.29,1.35-6.46,1.96
		c-1.36,0.39-2.74,0.71-4.12,1.01c-3.14,0.68-6.26,1.42-9.43,1.97c-2.34,0.41-4.72,0.53-7.08,0.82c-2.4,0.29-4.78,0.77-7.19,0.93
		c-3.31,0.21-6.63,0.2-9.94,0.28c-1.04,0.02-2.08-0.04-3.12,0.03c-0.32,0.02-0.62,0.36-0.93,0.56c0.3,0.22,0.57,0.51,0.91,0.64
		c0.29,0.11,0.66,0.03,0.99,0.03c1.25,0,2.49,0,3.78,0c0,0.52,0,0.92,0,1.41c-0.8-0.29-1.58-0.57-2.36-0.86
		c-0.1,0.13-0.21,0.27-0.31,0.4c0.45,0.44,0.82,1.01,1.35,1.3c1.33,0.73,2.7,1.43,4.12,1.97c1.81,0.68,3.66,1.32,5.54,1.74
		c2.24,0.5,4.54,0.76,6.82,1.08c2.41,0.34,4.81,0.83,7.23,0.91c4.16,0.15,8.33,0.04,12.49,0.04c0.37,0,0.77,0.02,1.1-0.11
		c1.96-0.74,4.12-0.26,6.1-1.1c1.88-0.8,3.92-1.21,5.85-1.91c0.45-0.17,0.91-0.79,1.04-1.29c0.64-2.38,1.18-4.79,1.74-7.2
		c0.21-0.91,0.35-1.84,0.56-2.75c0.24-1.07,0.56-2.12,0.76-3.19C338.03,456.78,339.45,456.45,340.19,455.21z"/>
	<path class="st2" d="M301.29,422.83c-1.88-1.43-3.72-2.9-5.64-4.27c-1.91-1.36-3.84-2.71-5.87-3.87c-3.7-2.12-7.7-3.47-11.78-4.74
		c-3.78-1.17-7.63-1.66-11.5-2.18c-2.06-0.28-4.11-0.63-6.15-1.02c-0.52-0.1-0.98-0.49-1.47-1.06c0.48-0.05,0.97-0.21,1.42-0.13
		c2.01,0.34,3.99,0.8,6,1.1c1.54,0.23,3.12,0.24,4.68,0.39c2.57,0.24,5.2,0.26,7.7,0.83c1.98,0.45,3.87,1.45,5.69,2.42
		c2.75,1.48,5.47,3.04,8.07,4.75c2.31,1.52,4.47,3.28,6.68,4.96c0.69,0.52,1.33,1.1,1.94,1.71c0.24,0.23,0.33,0.61,0.49,0.93
		C301.46,422.72,301.37,422.77,301.29,422.83z"/>
	<path class="st2" d="M315.84,419.06c1.59,0.01,1.35,1.22,1.9,2.06c0.31-0.37,0.66-0.68,0.86-1.07c1.3-2.62,2.72-5.12,4.89-7.19
		c2.39-2.28,4.45-4.9,6.82-7.2c2-1.94,4.24-3.63,6.35-5.46c0.46-0.4,0.8-0.93,1.23-1.36c1.3-1.29,3.1-1.17,4.7-1.51
		c0.88-0.19,1.84-0.03,2.76-0.03c0.05,0.18,0.1,0.35,0.15,0.53c-0.91,0.52-1.77,1.2-2.74,1.54c-3.78,1.31-7.07,3.45-10.23,5.82
		c-1.36,1.02-2.55,2.27-3.73,3.49c-2.23,2.31-4.44,4.63-6.56,7.03c-1.74,1.96-2.76,4.36-3.75,6.77c-0.12,0.3-0.38,0.54-0.58,0.81
		c-0.21-0.21-0.51-0.39-0.63-0.65C316.8,421.52,316.37,420.39,315.84,419.06z"/>
	<path class="st2" d="M297.52,432.06c-0.27,1.45-0.43,2.7-0.78,3.9c-0.12,0.42-0.77,1.03-1.09,0.98c-0.51-0.09-1.07-0.56-1.38-1.02
		c-0.99-1.5-0.91-3.23-0.76-4.92c0.12-1.3,0.26-2.6,0.56-3.86c0.1-0.42,0.64-0.9,1.08-1.05c0.65-0.22,1.22,0.1,1.37,0.86
		C296.87,428.69,297.2,430.44,297.52,432.06z"/>
	<path class="st2" d="M320.71,429.51c0.1-1.1,0.17-2.21,0.3-3.31c0.11-0.89,0.66-1.36,1.57-1.42c0.9-0.06,1.41,0.28,1.43,1.26
		c0.06,2.69,0.19,5.38,0.17,8.07c0,0.39-0.65,0.98-1.1,1.1c-0.36,0.1-1.16-0.29-1.28-0.62c-0.55-1.63-0.93-3.32-1.36-4.99
		C320.54,429.56,320.63,429.54,320.71,429.51z"/>
	<path class="st2" d="M304.76,407.09c0,0.39,0,0.79,0,1.18c0,4.94,0,9.89,0,14.83c0,0.21,0.06,0.44-0.01,0.62
		c-0.11,0.27-0.3,0.52-0.45,0.77c-0.17-0.24-0.39-0.45-0.51-0.71c-0.08-0.17-0.02-0.41-0.02-0.62c0.08-5.09,0.16-10.19,0.26-15.28
		c0.01-0.3,0.2-0.59,0.31-0.88C304.48,407.02,304.62,407.06,304.76,407.09z"/>
	<path class="st2" d="M276.52,386.52c-1.2,1.77-3.24,2.46-4.89,3.99C271.88,389.05,274.56,386.86,276.52,386.52z"/>
	<path class="st2" d="M283.77,391.41c-0.03,0.57,0,0.97-0.09,1.33c-0.19,0.81-0.42,1.62-0.68,2.42c-0.08,0.23-0.32,0.4-0.48,0.6
		c-0.15-0.12-0.36-0.22-0.43-0.38C281.68,394.53,282.6,392.05,283.77,391.41z"/>
	<path class="st2" d="M273.29,392.73c0.06-0.25,0.05-0.55,0.2-0.73c0.77-0.9,1.56-1.77,2.39-2.62c0.14-0.14,0.48-0.08,0.73-0.11
		c0.01,0.18,0.1,0.43,0.02,0.52c-1.01,1.05-2.05,2.08-3.08,3.11C273.46,392.85,273.38,392.79,273.29,392.73z"/>
	<path class="st2" d="M287.04,393.31c-0.12,0.75-0.21,1.45-0.35,2.14c-0.02,0.12-0.24,0.3-0.35,0.29c-0.17-0.02-0.39-0.14-0.48-0.29
		C285.39,394.68,285.94,393.59,287.04,393.31z"/>
	<path class="st2" d="M292.17,394.48c0.02-0.96,0.18-1.82,1.21-2.28C293.78,393.52,292.99,394.03,292.17,394.48z"/>
	<path class="st2" d="M340.19,455.21c-0.75,1.24-2.17,1.57-2.44,2.98c-0.2,1.07-0.52,2.12-0.76,3.19c-0.2,0.91-0.35,1.84-0.56,2.75
		c-0.56,2.4-1.1,4.81-1.74,7.2c-0.13,0.5-0.59,1.12-1.04,1.29c-1.93,0.71-3.97,1.12-5.85,1.91c-1.98,0.84-4.13,0.36-6.1,1.1
		c-0.33,0.13-0.73,0.11-1.1,0.11c-4.16,0.01-8.33,0.11-12.49-0.04c-2.42-0.09-4.82-0.57-7.23-0.91c-2.28-0.32-4.58-0.58-6.82-1.08
		c-1.89-0.42-3.73-1.06-5.54-1.74c-1.42-0.53-2.79-1.24-4.12-1.97c-0.53-0.29-0.91-0.86-1.35-1.3c0.1-0.13,0.21-0.27,0.31-0.4
		c0.78,0.28,1.56,0.56,2.36,0.86c0-0.49,0-0.89,0-1.41c-1.29,0-2.54,0-3.78,0c-0.33,0-0.7,0.08-0.99-0.03
		c-0.34-0.12-0.61-0.42-0.91-0.64c0.31-0.19,0.61-0.53,0.93-0.56c1.04-0.07,2.08-0.01,3.12-0.03c3.31-0.07,6.64-0.06,9.94-0.28
		c2.41-0.16,4.79-0.64,7.19-0.93c2.36-0.29,4.74-0.41,7.08-0.82c3.16-0.55,6.29-1.29,9.43-1.97c1.38-0.3,2.76-0.62,4.12-1.01
		c2.16-0.61,4.35-1.19,6.46-1.96c2.72-1,5.38-2.18,8.06-3.27c0.83-0.34,1.64-0.71,2.49-0.97
		C339.27,455.16,339.75,455.23,340.19,455.21z M286.54,467.54c0.27,1.06,0.22,2.38,0.78,2.74c1.29,0.82,2.85,1.32,4.37,1.7
		c2.68,0.66,5.39,1.21,8.12,1.65c2.94,0.47,5.91,1,8.88,1.07c5.29,0.14,10.6,0.28,15.88-0.42c0.8-0.11,0.92-0.45,0.94-1.12
		c0.05-1.69,0.14-3.38,0.25-5.07c0.02-0.26,0.18-0.51,0.28-0.77c0.13,0.02,0.26,0.03,0.39,0.05c0,2.11,0,4.23,0,6.61
		c1.47-0.46,2.64-1.04,3.86-1.17c2.59-0.27,3.68-1.84,4.21-4.13c0.69-3,1.51-5.97,2.12-8.99c0.15-0.73,0.87-1.66,0.09-2.33
		C320.71,464.31,304,466.81,286.54,467.54z"/>
	<path class="st3" d="M286.54,467.54c17.46-0.73,34.17-3.23,50.15-10.18c0.78,0.67,0.06,1.6-0.09,2.33
		c-0.61,3.02-1.43,5.99-2.12,8.99c-0.53,2.29-1.62,3.87-4.21,4.13c-1.22,0.13-2.38,0.7-3.86,1.17c0-2.38,0-4.49,0-6.61
		c-0.13-0.02-0.26-0.03-0.39-0.05c-0.1,0.26-0.26,0.51-0.28,0.77c-0.11,1.69-0.2,3.38-0.25,5.07c-0.02,0.68-0.14,1.02-0.94,1.12
		c-5.28,0.7-10.59,0.56-15.88,0.42c-2.97-0.08-5.94-0.6-8.88-1.07c-2.73-0.44-5.44-0.99-8.12-1.65c-1.51-0.37-3.07-0.87-4.37-1.7
		C286.77,469.92,286.82,468.6,286.54,467.54z"/>
</g>
<g>
	<g>
		<path class="st5" d="M462.3,277.65c2.87-4.47,5.61-9.31,6.72-12.32c1.71-4.48,1.66-6.12-3.04-10.69
			c-3.42-3.32-5.13-4.99-8.54-8.31c-18.65,19.05-37.29,38.1-55.94,57.15c-8.96,9.15-9.52,11.09-1.86,19.45
			c-1.28,1.31-1.92,1.96-3.2,3.27c-8.53-7.81-17.07-15.62-25.6-23.42c1.3-1.32,1.94-1.98,3.24-3.31c8.86,6.79,10.72,6.26,19.82-3.04
			c18.7-19.11,37.41-38.22,56.11-57.33c-3.11-3.03-4.67-4.54-7.78-7.56c-4.7-4.57-6.76-5.19-11.69-3.05
			c-3.35,1.37-6.82,3.56-12.23,6.87c-1.03-0.99-1.55-1.49-2.58-2.48c7.49-6.6,14.94-13.27,22.2-20.12c0.78,0.77,1.18,1.15,1.96,1.92
			c-1.51,4.1-0.45,4.89,1.93,7.22c11.26,10.99,22.51,21.98,33.77,32.97c2.39,2.33,3.53,2.53,6.97,1.57c0.82,0.8,1.23,1.2,2.04,2
			c-6.69,6.88-13.14,14.06-19.38,21.34C464.05,278.93,463.46,278.5,462.3,277.65z"/>
	</g>
</g>
<g>
	<g>
		<path class="st5" d="M346.56,290.45c-1.48,0.05-2.74-0.07-4.22-0.19c-8.34-0.55-12.78-3.58-17.81-13.81
			c-4.39-8.93-8.16-18.22-11.99-27.41c-2.28-5.33-3.77-6.32-9.59-6.21c-1.6,0.03-2.4,0.05-4,0.08c0,10.61,0,15.91,0,26.52
			c0,14.36,1.26,15.17,10.39,16.22c0,1.89,0,2.83,0,4.71c-10.16,0.34-20.33,0.68-30.49,1.02c0-1.9,0-2.86,0-4.76
			c9.48-1.83,10.28-2.53,10.28-16.93c0-22.53,0-45.07,0-67.6c0-14.4-1.26-14.9-10.28-16.42c0-1.9,0-2.86,0-4.76
			c9.71,0,19.41,0,29.12,0c8.34,0,13.93,1.59,18.27,5.69c4.6,4.35,7.67,11.95,7.77,22.05c0.11,11.46-4.9,22.67-14.73,29
			c2.06,5.17,6.93,16.4,10.39,23.75c4.11,8.73,6.39,12.89,9.02,16.97c3.06,4.74,5.71,6.49,8.34,7.41
			C346.83,287.65,346.74,288.58,346.56,290.45z M304.42,237.06c5.94-0.1,9.71-1.51,12.56-5.09c4.45-4.94,5.95-12.02,6.28-20.72
			c0.39-10.21-4.64-24.42-16.9-24.45c-3.3-0.01-5.25,0.73-6.05,1.7c-0.97,1.18-1.37,2.87-1.37,7.26c0,13.8,0,27.59,0,41.39
			C301.13,237.12,302.23,237.1,304.42,237.06z"/>
	</g>
</g>
<g>
	<g>
		<path class="st5" d="M540.43,377.88c-4.05-6.75-6.3-7.37-17.98-7.57c-13.94-0.24-27.96,0.23-41.94,0.58
			c-4.15,0.17-6.18,0.59-9.99,2.06c-7.81,3-11.71,4.51-19.52,7.51c-13.17,5.07-13.74,6.36-11.15,16.41
			c-1.77,0.68-2.66,1.02-4.43,1.7c-4.14-9.77-8.28-19.54-12.42-29.31c1.79-0.69,2.68-1.03,4.47-1.72c5.84,8.56,6.45,9.16,19.83,4.01
			c8.21-3.16,12.32-4.74,20.54-7.9c3.18-1.22,4.45-2.19,8.4-5.61c10.21-8.68,20.35-17.46,30.39-26.3c9.3-8.19,10.83-9.99,9.24-17.45
			c1.8-0.69,2.7-1.04,4.5-1.73c3.92,10.18,5.87,15.27,9.79,25.45c-1.78,0.69-2.68,1.03-4.46,1.72c-4.47-6.83-6.39-5.62-11.09-1.67
			c-11.06,9.43-22.2,18.77-33.16,28.32c13.86-0.46,27.94-0.8,41.57-1.62c8.71-0.52,10.29-1.58,8.4-10.24
			c1.77-0.68,2.66-1.02,4.44-1.71c3.6,9.35,5.4,14.03,8.99,23.38C543.07,376.86,542.19,377.2,540.43,377.88z"/>
	</g>
</g>
<g>
	<g>
		<path class="st5" d="M246.22,311.88c-1.16-1.46-1.73-2.19-2.89-3.65c4.3-5.38,3.81-7.2-1.11-11.22
			c-5.04-4.11-11.79-9.39-19.96-16.21c-6.88,5.69-10.31,8.54-17.19,14.23c3.4,6.96,6.27,13.08,9.43,19.39
			c5.01,10,6.97,10.13,14.47,5.96c1.16,1.47,1.74,2.2,2.91,3.67c-7.28,6.18-10.92,9.27-18.2,15.44c-1.17-1.48-1.76-2.22-2.93-3.7
			c4.13-5.26,4.66-7.26-1.95-21.42c-12.68-27.43-25.33-54.88-37.95-82.35c0.79-1.13,1.18-1.7,1.97-2.84
			c23.53,18.89,47.04,37.78,70.57,56.66c11.48,9.17,13,9.6,19.42,5.89c1.15,1.45,1.72,2.17,2.87,3.62
			C257.9,301.97,254.01,305.27,246.22,311.88z M183.15,248.88c6.3,13.25,12.6,26.51,18.86,39.78c5.96-4.92,8.94-7.37,14.91-12.29
			C205.66,267.21,194.4,258.04,183.15,248.88z"/>
	</g>
</g>
<g>
	<g>
		<path class="st5" d="M71.75,338.61c6.14-7.22,12.28-14.44,18.43-21.66c1.46,1.24,2.18,1.86,3.64,3.09
			c-4.46,7.11-4.51,9.03,7.08,18.89c7.47,6.35,14.94,12.71,22.41,19.06c1.1-1.86,0.57-5.53-1.1-11.01
			c-3.39-11.04-6.83-22.07-10.89-32.89c-2.34-6.18-4.22-7.36-7.96-4.53c-0.93,0.78-1.39,1.17-2.32,1.95
			c-1.45-1.23-2.18-1.85-3.63-3.08c6.71-7.89,10.06-11.83,16.77-19.72c1.44,1.22,2.16,1.84,3.6,3.06
			c-4.01,7.08-5.17,9.72-0.85,22.77c3.28,10.88,6.63,21.74,10.03,32.59c17.05,3.76,34.21,7.39,51.4,10.3
			c10.48,1.77,12.37,1.57,17.39-2.83c1.44,1.22,2.16,1.83,3.59,3.06c-4.24,5.34-6.36,8.01-10.6,13.35
			c-18.13-3.46-36.17-7.45-54.23-11.3c-5.2-1.2-6.61-0.03-7.56,1.4c8.25,7.02,16.51,14.04,24.76,21.06
			c11.34,9.64,12.85,9.67,19.27,3.52c1.46,1.24,2.18,1.86,3.64,3.09c-5.9,7.43-11.8,14.86-17.7,22.28c-1.47-1.25-2.2-1.87-3.67-3.12
			c4.53-7.62,4.15-9.06-7.22-18.73c-16.99-14.45-33.98-28.9-50.97-43.35c-11.76-10-13.16-10.21-19.66-4.14
			C73.95,340.48,73.22,339.86,71.75,338.61z"/>
	</g>
</g>
<g>
	<g>
		<path class="st6" d="M340.88,673.08c-0.62,3.8-3.43,18.86-4.46,23.27c-16.82,0.61-33.64,1.22-50.45,1.83c0-1.66,0-2.49,0-4.15
			c9.65-1.37,10.38-2.72,10.38-14.84c0-19.46,0-38.92,0-58.38c0-13.16-1.14-13.89-8.93-14.91c0-1.66,0-2.49,0-4.15
			c10.59,0,21.18,0,31.77,0c9.76,0,13.81-0.15,15.05-0.29c0.1,3.64,0.52,14.57,0.93,22.28c-1.25,0.3-1.87,0.45-3.11,0.75
			c-0.93-4.95-1.97-8-3.11-11.07c-1.66-4.81-4.05-5.83-10.28-5.81c-3.95,0.01-5.92,0.01-9.86,0.02c-3.22,0.01-3.43,0.45-3.43,4.72
			c0,10.85,0,21.7,0,32.55c4.61-0.08,6.92-0.11,11.53-0.19c7.79-0.13,8.3-2.33,9.55-12.29c1.29-0.02,1.93-0.02,3.22-0.04
			c0,10.02,0,20.04,0,30.07c-1.29,0.03-1.93,0.04-3.22,0.07c-1.35-10.49-2.18-11.94-9.66-11.8c-4.57,0.09-6.85,0.13-11.42,0.21
			c0,9.77,0,19.54,0,29.31c0,10.31,2.28,11.12,7.48,11.09c3.86-0.13,5.79-0.2,9.66-0.33c6.33-0.22,7.35-1.66,9.65-5.43
			c1.9-3.11,4.15-9.16,5.61-13.57C339.02,672.43,339.64,672.65,340.88,673.08z"/>
	</g>
</g>
<g>
	<g>
		<path class="st6" d="M422.97,669.65c-0.59-1.53-0.89-2.3-1.48-3.83c4.51-3.2,4.37-4.1-1.34-18.68
			c-7.16-18.58-14.33-37.16-21.49-55.75c4.77,27.5,9.17,55.08,14.45,82.49c-0.63,0.27-0.94,0.4-1.56,0.67
			c-13.96-23.44-28.35-46.64-42.66-69.87c7.55,20.82,14.91,41.88,22.88,62.4c2.98,7.69,4.99,8.19,9.45,7.4
			c0.6,1.55,0.9,2.32,1.49,3.86c-5.7,2.45-8.55,3.67-14.25,6.11c-0.6-1.55-0.9-2.33-1.5-3.89c3.17-2.32,4-4.67,1.56-12.28
			c-6.69-20.85-14.53-41.63-21.83-62.42c-2.54-7.29-4.06-9.4-9.85-8.43c-0.6-1.55-0.9-2.33-1.5-3.88c4.24-1.64,6.37-2.46,10.61-4.1
			c13.45,21.49,26.92,42.97,40.41,64.43c-4.19-25.07-8.35-50.15-12.49-75.23c4.27-1.65,6.4-2.48,10.67-4.13
			c0.59,1.52,0.88,2.28,1.47,3.81c-4.71,3.4-4.91,4.89-1.1,14.38c6.83,17.41,13.66,34.82,20.49,52.23
			c5.88,14.48,6.33,15.09,12.09,14.05c0.59,1.52,0.88,2.28,1.47,3.81C432.57,665.54,429.37,666.91,422.97,669.65z"/>
	</g>
</g>
<g>
	<g>
		<path class="st6" d="M470.17,460.13c-1.21,5.26-0.63,7.48,4.93,10.04c3.86,1.78,9.04,4.12,20.53,9.02
			c16.51,7.03,33.02,14.07,49.53,21.1c-0.46,1.18-0.69,1.77-1.15,2.94c-26.12,1.86-52.25,3.61-78.39,5.25
			c10.43,4.44,20.87,8.89,31.3,13.33c11.27,4.8,17.04,6.95,20.69,8.36c6.41,2.48,9.08,1.43,12.01-3.82c1.4,0.6,2.1,0.89,3.49,1.49
			c-2.93,7.53-4.4,11.29-7.33,18.81c-1.41-0.6-2.11-0.9-3.52-1.5c1.25-5.07,0.06-7.71-5.93-10.65c-3.91-1.92-9.5-4.5-20.91-9.36
			c-10.66-4.54-21.32-9.08-31.97-13.62c-3.51-1.5-5.62-2.15-8.92-1.99c-3.69,0.17-5.18,1.4-7.4,4.88c-1.41-0.6-2.11-0.9-3.52-1.5
			c1.95-4.58,2.93-6.88,4.88-11.46c25.35-1.86,50.68-3.82,76.01-5.9c-10.1-4.3-20.2-8.61-30.3-12.91
			c-11.5-4.9-16.94-6.99-20.69-8.36c-5.63-2.06-8.14-1.12-11.36,4.73c-1.39-0.59-2.08-0.89-3.47-1.48
			c3.22-7.55,4.82-11.32,8.04-18.87C468.1,459.25,468.79,459.55,470.17,460.13z"/>
	</g>
</g>
<g>
	<g>
		<path class="st6" d="M490.23,606.5c-14.33,14.77-39.44,2.52-50.58-9.33c-11.9-12.66-27.97-36.59-12.61-53.66
			c14.38-15.98,39.36-2.77,51.43,9.17C491.07,565.13,505.58,590.69,490.23,606.5z M488,601.8c11.13-11.47-5.1-31.76-13.29-39.84
			c-8.79-8.67-33.37-27.37-45.06-13.89c-10.65,12.29,4.73,30.53,13.61,39.9C452.46,597.68,475.82,614.36,488,601.8z"/>
	</g>
</g>
<g>
	<g>
		<path class="st6" d="M161.77,491.51c4.08,7.35,5.84,14.24,4.68,20.63c-1.11,6.12-5.19,12.31-12.74,17.13
			c-12.77,8.15-29.25,5.08-36.95-7.64c-0.66-1.09-1.13-2.22-1.37-2.91c-0.79-3.35-1.18-5.03-1.97-8.39
			c-7.37,4.59-11.05,6.89-18.42,11.48c-9.92,6.18-9.74,7.04-5.35,17.13c-1.32,0.82-1.98,1.23-3.29,2.05
			c-5.58-9.34-11.16-18.69-16.74-28.03c1.33-0.83,2-1.24,3.33-2.07c6.27,8.07,7.22,8.04,17.06,1.91
			c15.69-9.77,31.37-19.54,47.06-29.31c10.55-6.57,10.15-7.85,6.55-16.62c1.33-0.83,2-1.24,3.33-2.07
			C151.89,473.7,156.83,482.61,161.77,491.51z M117.55,507.77c0,1.67,0.81,4.96,2.79,8.44c5.68,9.97,19.16,9.23,27.59,3.71
			c8.83-5.78,14.85-17.12,9.03-27.36c-1.68-2.96-3.57-4.73-4.64-4.91c-1.21-0.2-2.88,0.26-6.07,2.24
			C136.68,495.85,127.12,501.81,117.55,507.77z"/>
	</g>
</g>
<g>
	<g>
		<path class="st6" d="M225.41,573.92c8.22,4.34,12.33,6.51,20.56,10.86c-0.68,1.48-1.02,2.22-1.7,3.71
			c-6.43-2.24-7.94-1.87-13.35,9.95c-4.18,9.14-6.28,13.7-10.46,22.84c1.67,0.52,4.43-0.7,8.38-3.26
			c8.01-5.07,15.94-10.44,23.54-16.11c4.37-3.27,4.92-5.1,1.97-7.63c-0.79-0.61-1.19-0.92-1.98-1.53c0.68-1.48,1.02-2.22,1.69-3.69
			c7.48,3.95,11.23,5.93,18.71,9.88c-0.67,1.47-1.01,2.2-1.68,3.66c-6.32-1.86-8.62-2.27-17.95,4.11
			c-7.86,5.05-15.68,10.17-23.47,15.33c0.46,15.1,0.97,30.26,2.11,45.29c0.69,9.16,1.21,10.71,5.64,13.98
			c-0.67,1.46-1.01,2.2-1.68,3.66c-5.01-2.42-7.51-3.64-12.52-6.06c-0.85-15.95-1.32-31.91-1.88-47.87
			c-0.09-4.61-1.29-5.55-2.59-6.04c-4.62,10.09-6.93,15.14-11.56,25.23c-5.29,11.55-5.02,12.83,1.05,16.91
			c-0.68,1.48-1.02,2.22-1.7,3.71c-8.36-4.05-12.54-6.07-20.9-10.11c0.68-1.5,1.03-2.24,1.71-3.74c6.84,2.18,7.89,1.56,13.2-10.03
			c7.93-17.31,15.86-34.62,23.79-51.93c5.49-11.98,5.38-13.2-0.65-17.36C224.39,576.16,224.73,575.41,225.41,573.92z"/>
	</g>
</g>
<g>
	<g>
		<path class="st6" d="M195.43,547.49c14.59,14.52,2.01,41.41-8.95,53.49c-10.8,11.9-34.55,32.46-51.38,17.01
			c-15.77-14.49-2.16-41.44,8.79-54.37C154.5,551.1,179.76,531.9,195.43,547.49z M190.93,550.16
			c-11.05-10.98-31.24,8.58-38.15,16.74c-8.29,9.79-26.39,36.58-13.31,48.05c11.91,10.45,30.66-8.19,38.21-17.07
			C186.39,587.61,203.46,562.62,190.93,550.16z"/>
	</g>
</g>
<ellipse cx="308.12" cy="437.93" rx="103.19" ry="98.88"/>
<rect x="393.13" y="420.95" width="163.81" height="32.29"/>
<rect x="51.51" y="421.78" width="163.81" height="32.29"/>
<path class="st7" d="M51.51,316.21"/>
<ellipse class="st0" cx="308.12" cy="437.93" rx="55.06" ry="54.65"/>
<path class="st8" d="M628.33,437.93"/>
<path class="st8" d="M599.17,434.75"/>
</svg>
